<?xml version="1.0" encoding="utf-8"?>
<!-- Generator: Adobe Illustrator 25.4.1, SVG Export Plug-In . SVG Version: 6.00 Build 0)  -->
<svg version="1.1" id="Layer_1" xmlns="http://www.w3.org/2000/svg" xmlns:xlink="http://www.w3.org/1999/xlink" x="0px" y="0px"
	 viewBox="0 0 508.1 250" style="enable-background:new 0 0 508.1 250;" xml:space="preserve">
<style type="text/css">
	.st0{fill:#0C0C4F;}
	.st1{fill:#221700;}
	.st2{fill:#FFFFFF;}
</style>
<g>
	<defs>
		<rect id="SVGID_1_" x="593.2" y="306.6" width="267.3" height="267.3"/>
	</defs>
	<clipPath id="SVGID_00000181046881143289182860000014586989174348450743_">
		<use xlink:href="#SVGID_1_"  style="overflow:visible;"/>
	</clipPath>
	
		<g transform="matrix(1 0 0 1 0 1.525879e-05)" style="clip-path:url(#SVGID_00000181046881143289182860000014586989174348450743_);">
		
			<image style="overflow:visible;" width="3840" height="2160" xlink:href="../MSB/Design Assets/Background/blurdvol2 by beto/blurd3-55.jpg"  transform="matrix(0.1622 0 0 0.1622 365.4125 230.8592)">
		</image>
	</g>
</g>
<g>
	<defs>
		<rect id="SVGID_00000047057424089352251850000011880426360513939588_" x="-7.3" y="306.6" width="525.1" height="268.1"/>
	</defs>
	<clipPath id="SVGID_00000033365786883288315050000012649205652708517050_">
		<use xlink:href="#SVGID_00000047057424089352251850000011880426360513939588_"  style="overflow:visible;"/>
	</clipPath>
	<g style="clip-path:url(#SVGID_00000033365786883288315050000012649205652708517050_);">
		
			<image style="overflow:visible;" width="3840" height="2160" xlink:href="../MSB/Design Assets/Background/blurdvol2 by beto/blurd3-55.jpg"  transform="matrix(0.2189 0 0 0.2269 -186.9988 153.7159)">
		</image>
	</g>
</g>
<g>
	<g>
		<path class="st0" d="M135.9,114.6l8.3-8.8l-1.7-24.6l1.7-6.8L136.4,63l-7.5-23.7l-10.8,6.9l-2.6,4.6l-23.8-1.4L78,38.3L64.2,50.1
			l2.6,11.8L55.3,79.8l8.9,43l-13.4,43.6l12.5,34.8l8.2-11.3l14,21.9l12.1-12.1l6.6,9l34.8-46.4l-17.8-36.6l2.3-11H135.9z
			 M135.6,111.8l-2.6-0.2l3.5-3.3l1.9,0.7L135.6,111.8z M140.8,106.7l-2.1-1.6l2.1-2.3V106.7z M89.9,110.9l14.4-4.5L116,117h0
			l-2.6,11.4l22,33.5l-20.6,27.7l-5.7-5.8l4.9-12.2l-23.5,26.4l-13.8-15.3l13.6-24.6l-21,21.8l-10.5-22l6.5-21l9.6,17.8L59.6,84.5
			l9.2-13.4l2.3,10.4l-1.4-27.7l6.8-5.2l29.3,19.7l-9.2-13.8h28l5.3,11.2l0.3-10.4l4.7,9.6l3.9,12.7l-5,5.3l7,14.5L136,95l-8.8,7.9
			l5.2,4l-5.8,4.5l-10.8,0.8L104,101.7l-9.1,1.9c0,0-20.2-18.3-21.5-19.3L89.9,110.9z"/>
		<polygon class="st0" points="88.9,67.9 81.1,55.3 82.9,66.3 75.2,72.6 		"/>
		<path class="st0" d="M110.1,91.3c0.1,0.7,1.1,0.9,1.3,0.2c0.7-3.7,3.7-6.2,7.6-6.2c0.7,0,0.7-1,0-1.3c-3.9-1.4-6.9-5-7.6-9
			c-0.1-0.7-1.1-0.9-1.3-0.2v0c-0.7,3.7-3.7,6.2-7.6,6.2c-0.7,0-0.7,1,0,1.3C106.3,83.7,109.4,87.3,110.1,91.3z"/>
	</g>
	<g>
		<path class="st0" d="M181.3,64.3h13l12.5,44.4h0.5l12.5-44.4h13v51.6h-7.2V71.5H225l-12.5,44.4h-10.8l-12.6-44.4h-0.5v44.4h-7.3
			V64.3z"/>
		<path class="st0" d="M241.8,96.7c0-11.6,7.4-20.2,18.1-20.2c7.4,0,11,4.4,12.5,6.5h0.6v-5.5h7.3v30.1c0,1.2,0.7,1.8,1.9,1.8h1.8
			v6.6h-5.2c-3.2,0-5.6-2-5.6-5.3h-0.5c-1.3,1.8-4.6,6.3-12.2,6.3C249.6,116.9,241.8,108.4,241.8,96.7z M273.1,96.7
			c0-8.5-5.5-13.5-12-13.5c-6.9,0-11.9,5.6-11.9,13.5c0,8.1,5.3,13.4,12,13.4C268.5,110.2,273.1,104,273.1,96.7z"/>
		<path class="st0" d="M292.5,77.4h7.2v6h0.5c1.3-3.2,5.1-7,10.3-7h2.7v7.3h-3.7c-6.6,0-9.8,5.1-9.8,12.4v19.8h-7.3V77.4z"/>
		<path class="st0" d="M325.8,104.6V83.8h-7v-6.3h7.4v-11h6.9v11h11.4v6.3h-11.4v20.8c0,3.5,1.4,4.9,4.8,4.9h6.1v6.4h-6.2
			C330.6,115.9,325.8,112.6,325.8,104.6z"/>
		<path class="st0" d="M350.3,96.7c0-12.2,8.6-20.3,18.9-20.3c11.7,0,18.6,8.3,18.6,19.8v2.3h-30c0.1,7.5,4.6,11.9,11.8,11.9
			c4.8,0,9.3-2.7,10.6-7.4l6.9,1.7c-2.4,7.6-9.1,12.1-17.5,12.1C357.9,116.9,350.3,108.5,350.3,96.7z M380.4,93.1
			c-0.4-6.6-5.3-10.2-11.1-10.2c-5.9,0-10.8,4.3-11.4,10.2H380.4z"/>
		<path class="st0" d="M396.1,77.4h7.3v5h0.6c1.6-3.2,5.5-6,11.1-6c8.7,0,14.1,6.5,14.1,14.7v24.7h-7.3V92.5c0-5.5-4-9.1-8.8-9.1
			c-5.4,0-9.6,4.2-9.6,9.8v22.8h-7.3V77.4z"/>
		<path class="st0" d="M181.3,140.2h30.4v6.9h-22.8v15.8h21.3v6.9h-21.3v22h-7.5V140.2z"/>
		<path class="st0" d="M224.9,159.6h-7v-6.3h14.3v38.5h-7.3V159.6z M223.7,141.9c0-2.7,2.1-4.8,4.9-4.8c2.9,0,4.9,2.1,4.9,4.8
			c0,2.8-2.1,4.9-4.9,4.9C225.7,146.9,223.7,144.7,223.7,141.9z"/>
		<path class="st0" d="M244.2,153.3h7.3v5h0.6c1.6-3.2,5.5-6,11.1-6c8.7,0,14.1,6.5,14.1,14.7v24.7H270v-23.4c0-5.5-4-9.1-8.8-9.1
			c-5.4,0-9.6,4.2-9.6,9.8v22.8h-7.3V153.3z"/>
		<path class="st0" d="M284.8,172.5c0-11.6,7.4-20.2,18.1-20.2c7.4,0,11,4.4,12.5,6.5h0.6v-5.5h7.3v30.1c0,1.2,0.7,1.8,1.9,1.8h1.8
			v6.6h-5.2c-3.2,0-5.6-2-5.6-5.3h-0.5c-1.3,1.8-4.6,6.3-12.2,6.3C292.6,192.7,284.8,184.2,284.8,172.5z M316.1,172.6
			c0-8.5-5.5-13.5-12-13.5c-6.9,0-11.9,5.6-11.9,13.5c0,8.1,5.3,13.4,12,13.4C311.5,186,316.1,179.9,316.1,172.6z"/>
		<path class="st0" d="M335.5,153.3h7.3v5h0.6c1.6-3.2,5.5-6,11.1-6c8.7,0,14.1,6.5,14.1,14.7v24.7h-7.3v-23.4c0-5.5-4-9.1-8.8-9.1
			c-5.4,0-9.6,4.2-9.6,9.8v22.8h-7.3V153.3z"/>
		<path class="st0" d="M376,172.5c0-11.4,8.3-20.2,19.8-20.2c8.8,0,16.2,5,18.4,14l-7,1.7c-1-5.4-5.5-8.9-11.1-8.9
			c-7.4,0-12.5,5.9-12.5,13.4c0,7.7,5.2,13.3,12.5,13.3c5.6,0,10.1-3.4,11.1-8.8l7.1,1.6c-2.1,9-9.7,14-18.4,14
			C384.1,192.7,376,183.8,376,172.5z"/>
		<path class="st0" d="M419.8,172.6c0-12.2,8.6-20.3,18.9-20.3c11.7,0,18.6,8.3,18.6,19.8v2.3h-30c0.1,7.5,4.6,11.9,11.8,11.9
			c4.8,0,9.3-2.7,10.6-7.4l6.9,1.7c-2.4,7.6-9.1,12.1-17.5,12.1C427.4,192.7,419.8,184.4,419.8,172.6z M449.9,168.9
			c-0.4-6.6-5.3-10.2-11.1-10.2c-5.9,0-10.8,4.3-11.4,10.2H449.9z"/>
	</g>
</g>
</svg>
