<svg width="117" height="50" viewBox="0 0 117 50" fill="none" xmlns="http://www.w3.org/2000/svg">
<g clip-path="url(#clip0_24_1324)">
<path d="M24.4937 22.0012L26.8827 19.4637L26.3934 12.3991L26.8827 10.4383L24.6376 7.12226L22.479 0.288351L19.3705 2.27797L18.6221 3.60438L11.772 3.20069L7.82878 0L3.85683 3.40254L4.60517 6.80508L1.2952 11.9666L3.85683 24.3656L0 36.9377L3.59779 46.9723L5.95793 43.714L9.98745 50.0288L13.4701 46.5398L15.3697 49.135L25.386 35.7555L20.2627 25.2018L20.9247 22.03H24.4937V22.0012ZM24.4074 21.1938L23.659 21.1361L24.6664 20.1845L25.2133 20.3864L24.4074 21.1938ZM25.9041 19.7232L25.2996 19.2618L25.9041 18.5986V19.7232ZM11.2539 20.9343L15.3985 19.6367L18.7948 22.6932L18.0465 25.9804L24.3786 35.6401L18.4207 43.6563L16.7801 41.9839L18.1904 38.466L11.4266 46.0784L7.45461 41.6667L11.369 34.5732L5.32472 40.8593L2.30258 34.4867L4.17343 28.4314L6.93653 33.564L2.53284 13.3218L5.18081 9.4579L5.8428 12.4567L5.43985 4.46944L7.39705 2.97001L15.8015 8.65052L13.1535 4.67128H21.2125L22.738 7.90081L22.8244 4.90196L24.1771 7.67013L25.3284 11.361L23.8893 12.8893L25.9041 17.0704L24.5225 16.3495L21.9897 18.6275L23.4863 19.7809L21.817 21.0784L18.7085 21.3091L15.3122 18.2814L12.693 18.8293C12.693 18.8293 6.87897 13.5525 6.5048 13.2641L11.2539 20.9343Z" fill="white"/>
<path d="M10.9661 8.53507L8.7211 4.90186L9.23919 8.07371L7.02295 9.91916L10.9661 8.53507Z" fill="white"/>
<path d="M17.0681 15.2826C17.0968 15.4844 17.3847 15.5421 17.4422 15.3402C17.6437 14.2733 18.5072 13.5524 19.6297 13.5524C19.8312 13.5524 19.8312 13.2641 19.6297 13.1776C18.5072 12.7739 17.6437 11.7358 17.4422 10.5824C17.4134 10.3806 17.1256 10.3229 17.0681 10.5248C16.8666 11.5917 16.0031 12.3125 14.8806 12.3125C14.6791 12.3125 14.6791 12.6009 14.8806 12.6874C15.9743 13.0911 16.8666 14.1291 17.0681 15.2826Z" fill="white"/>
<path d="M37.561 7.49707H41.3027L44.9005 20.3287H45.0444L48.6422 7.49707H52.3839V22.376H50.3116V9.5732H50.1389L46.5411 22.376H43.4326L39.8061 9.5732H39.6621V22.376H37.561V7.49707Z" fill="white"/>
<path d="M54.9741 16.8396C54.9741 13.4947 57.104 11.0149 60.1837 11.0149C62.3136 11.0149 63.3498 12.2836 63.7815 12.8892H63.9542V11.3032H66.0553V19.9826C66.0553 20.3286 66.2568 20.5016 66.6022 20.5016H67.1202V22.4047H65.6236C64.7025 22.4047 64.0118 21.828 64.0118 20.8765H63.8678C63.4937 21.3955 62.5439 22.6931 60.3564 22.6931C57.2191 22.6643 54.9741 20.2133 54.9741 16.8396ZM63.983 16.8684C63.983 14.4174 62.4 12.9757 60.5291 12.9757C58.5431 12.9757 57.104 14.5904 57.104 16.8684C57.104 19.2041 58.6295 20.7323 60.5579 20.7323C62.659 20.7323 63.983 18.9734 63.983 16.8684Z" fill="white"/>
<path d="M69.5669 11.2744H71.6392V13.0045H71.7831C72.1573 12.0818 73.251 10.9861 74.7477 10.9861H75.5248V13.091H74.4599C72.5602 13.091 71.6392 14.5616 71.6392 16.6666V22.3759H69.5381V11.2744H69.5669Z" fill="white"/>
<path d="M79.1515 19.1175V13.1198H77.1367V11.3032H79.2666V8.13135H81.2526V11.3032H84.5338V13.1198H81.2526V19.1175C81.2526 20.1267 81.6555 20.5304 82.6341 20.5304H84.3899V22.3759H82.6054C80.5042 22.3759 79.1515 21.4243 79.1515 19.1175Z" fill="white"/>
<path d="M86.2031 16.8684C86.2031 13.3505 88.6784 11.0149 91.643 11.0149C95.0105 11.0149 96.9965 13.4082 96.9965 16.7242V17.3874H88.3618C88.3906 19.5501 89.6858 20.8188 91.7581 20.8188C93.1397 20.8188 94.4349 20.0403 94.809 18.685L96.795 19.1752C96.1042 21.3667 94.1758 22.6643 91.7581 22.6643C88.3906 22.6643 86.2031 20.2421 86.2031 16.8684ZM94.8666 15.8015C94.7515 13.8984 93.3411 12.8603 91.6718 12.8603C89.9736 12.8603 88.5633 14.1002 88.3906 15.8015H94.8666Z" fill="white"/>
<path d="M99.3853 11.2744H101.486V12.7162H101.659C102.12 11.7935 103.242 10.9861 104.854 10.9861C107.358 10.9861 108.912 12.8604 108.912 15.2248V22.3471H106.782V15.6285C106.782 14.0426 105.631 13.0045 104.249 13.0045C102.695 13.0045 101.486 14.2156 101.486 15.8304V22.4048H99.3853V11.2744Z" fill="white"/>
<path d="M37.561 29.3828H46.3108V31.3724H39.7197V35.9284H45.8503V37.918H39.7197V44.2617H37.561V29.3828Z" fill="white"/>
<path d="M50.11 34.9769H48.0952V33.1603H52.2111V44.2618H50.11V34.9769ZM49.7646 29.8731C49.7646 29.0945 50.369 28.489 51.1749 28.489C52.0096 28.489 52.5852 29.0945 52.5852 29.8731C52.5852 30.6805 51.9808 31.286 51.1749 31.286C50.3402 31.3148 49.7646 30.6805 49.7646 29.8731Z" fill="white"/>
<path d="M55.665 33.1602H57.7661V34.6019H57.9388C58.3994 33.6792 59.5219 32.8718 61.1337 32.8718C63.6377 32.8718 65.192 34.7461 65.192 37.1106V44.2328H63.0909V37.4854C63.0909 35.8995 61.9396 34.8614 60.558 34.8614C59.0038 34.8614 57.7949 36.0725 57.7949 37.6873V44.2617H55.6938V33.1602H55.665Z" fill="white"/>
<path d="M67.3506 38.6965C67.3506 35.3516 69.4805 32.8718 72.5602 32.8718C74.6901 32.8718 75.7262 34.1406 76.158 34.7461H76.3307V33.1602H78.4318V41.8395C78.4318 42.1856 78.6332 42.3586 78.9786 42.3586H79.4967V44.2617H78C77.079 44.2617 76.3882 43.685 76.3882 42.7334H76.2443C75.8701 43.2524 74.9203 44.55 72.7329 44.55C69.5956 44.5212 67.3506 42.099 67.3506 38.6965ZM76.3594 38.7253C76.3594 36.2744 74.7764 34.8326 72.9056 34.8326C70.9196 34.8326 69.4805 36.4474 69.4805 38.7253C69.4805 41.061 71.0059 42.5892 72.9343 42.5892C75.0355 42.5892 76.3594 40.8303 76.3594 38.7253Z" fill="white"/>
<path d="M81.9434 33.1602H84.0445V34.6019H84.2172C84.6777 33.6792 85.8002 32.8718 87.412 32.8718C89.9161 32.8718 91.4703 34.7461 91.4703 37.1106V44.2328H89.3692V37.4854C89.3692 35.8995 88.2179 34.8614 86.8363 34.8614C85.2821 34.8614 84.0732 36.0725 84.0732 37.6873V44.2617H81.9721V33.1602H81.9434Z" fill="white"/>
<path d="M93.6001 38.6965C93.6001 35.4093 95.989 32.8718 99.299 32.8718C101.832 32.8718 103.962 34.3136 104.595 36.9087L102.58 37.3989C102.292 35.8418 100.997 34.8326 99.3853 34.8326C97.2554 34.8326 95.7875 36.5339 95.7875 38.6965C95.7875 40.9168 97.2842 42.5316 99.3853 42.5316C100.997 42.5316 102.292 41.5512 102.58 39.9941L104.624 40.4554C104.019 43.0506 101.832 44.4924 99.3278 44.4924C95.9315 44.5212 93.6001 41.9549 93.6001 38.6965Z" fill="white"/>
<path d="M106.207 38.7253C106.207 35.2075 108.682 32.8718 111.647 32.8718C115.014 32.8718 117 35.2651 117 38.5812V39.2444H108.366C108.394 41.407 109.69 42.6757 111.762 42.6757C113.144 42.6757 114.439 41.8972 114.813 40.542L116.799 41.0322C116.108 43.2236 114.18 44.5212 111.762 44.5212C108.394 44.5212 106.207 42.1279 106.207 38.7253ZM114.871 37.6584C114.755 35.7553 113.345 34.7173 111.676 34.7173C109.978 34.7173 108.567 35.9572 108.394 37.6584H114.871Z" fill="white"/>
</g>
<defs>
<clipPath id="clip0_24_1324">
<rect width="117" height="50" fill="white"/>
</clipPath>
</defs>
</svg>
