<svg width="104" height="24" viewBox="0 0 104 24" fill="none" xmlns="http://www.w3.org/2000/svg">
<path d="M1 12.5003C1 18.8516 6.14858 24.0002 12.4998 24.0002C18.8511 24.0002 24 18.8516 24 12.5003C24 6.14893 18.8511 1.00024 12.4998 1.00024C6.14858 1.00024 1 6.14891 1 12.5003Z" fill="#0C0C4F"/>
<path fill-rule="evenodd" clip-rule="evenodd" d="M0 12.0003C0 5.37277 5.37244 0.000244141 11.9998 0.000244141C18.6273 0.000244141 24 5.37277 24 12.0003C24 18.6277 18.6273 24.0002 11.9998 24.0002C5.37244 24.0002 0 18.6277 0 12.0003ZM11.9998 0.60785C5.708 0.60785 0.607595 5.70834 0.607595 12.0003C0.607595 18.2922 5.708 23.3926 11.9998 23.3926C18.2917 23.3926 23.3924 18.2921 23.3924 12.0003C23.3924 5.70836 18.2917 0.60785 11.9998 0.60785Z" fill="#EC796B"/>
<path fill-rule="evenodd" clip-rule="evenodd" d="M6.59618 8.92273L6.83994 8.1696C6.88949 8.01641 7.01038 7.89722 7.16412 7.85022L7.9209 7.61748C8.02565 7.58548 8.0265 7.43769 7.9226 7.404L7.16922 7.16021C7.01633 7.11067 6.89713 6.98977 6.84985 6.83603L6.6174 6.07921C6.58542 5.97473 6.43763 5.97359 6.40393 6.0778L6.16017 6.83093C6.11062 6.98383 5.98973 7.10302 5.83599 7.15031L5.07921 7.38276C4.97446 7.41504 4.97332 7.56255 5.07751 7.59624L5.83089 7.84002C5.98378 7.88957 6.10298 8.01075 6.15025 8.16449L6.3827 8.92103C6.41469 9.0258 6.56248 9.02692 6.59618 8.92273Z" fill="#FAFAFA"/>
<path fill-rule="evenodd" clip-rule="evenodd" d="M21 8.7806C20.623 8.38009 20.0343 8.15458 19.4621 8.06211C18.8854 7.9733 18.2806 7.98154 17.7112 8.07761C16.5591 8.2627 15.5125 8.71575 14.5996 9.27467C14.1255 9.54897 13.7212 9.86638 13.3024 10.1896C13.1006 10.3531 12.9166 10.5272 12.725 10.6988L12.2014 11.1935C11.6325 11.7583 11.0717 12.2727 10.5292 12.6991C9.98443 13.1235 9.47513 13.4459 8.97322 13.671C8.47163 13.8972 7.93492 14.0303 7.23536 14.0516C6.54194 14.0748 5.72155 13.956 4.84401 13.7598C3.96176 13.5645 3.0353 13.2861 2 13.0465C2.36124 13.9983 2.90522 14.8394 3.60363 15.6082C4.31023 16.3637 5.19258 17.0524 6.32604 17.5053C7.44314 17.9682 8.84698 18.1344 10.1596 17.8837C11.4757 17.643 12.6307 17.0646 13.5642 16.3957C14.5002 15.72 15.2574 14.9503 15.8958 14.1499C16.072 13.9288 16.1652 13.8051 16.2927 13.6323L16.6453 13.1364C16.8902 12.8297 17.1132 12.4805 17.3557 12.1766C17.8311 11.5401 18.2996 10.9044 18.8442 10.3187C19.1182 10.0217 19.4073 9.73751 19.7485 9.46445C19.9188 9.33117 20.1025 9.20072 20.3062 9.08323C20.5129 8.95649 20.7312 8.85729 21 8.7806Z" fill="#EC796B"/>
<path fill-rule="evenodd" clip-rule="evenodd" d="M21 8.43227C20.5949 7.36627 19.8417 6.46891 18.8309 5.80675C17.8259 5.15186 16.4304 4.81765 15.0476 5.10254C14.3643 5.24033 13.7024 5.50559 13.1215 5.85883C12.5433 6.21068 12.0252 6.6342 11.5766 7.08858C11.3527 7.31653 11.1494 7.55431 10.9475 7.79345L10.4241 8.48924L9.61579 9.60927C8.58527 11.0503 7.47554 12.7392 5.6544 13.2396C3.86658 13.7309 3.09117 13.2958 2 13.116C2.19952 13.6532 2.44666 14.1748 2.78171 14.6337C3.11051 15.1018 3.49888 15.5416 3.98172 15.9184C4.22573 16.0995 4.48335 16.2781 4.76948 16.4297C5.05429 16.5761 5.36144 16.7049 5.68929 16.802C6.34142 16.9884 7.07562 17.0536 7.78648 16.9534C8.49768 16.8545 9.17746 16.6194 9.77166 16.3073C10.3702 15.9982 10.8917 15.6216 11.3573 15.2242C12.2828 14.4227 13.0027 13.5372 13.6109 12.642C13.9167 12.1945 14.1944 11.7385 14.4512 11.2824L14.7534 10.7393C14.8458 10.5806 14.9393 10.4209 15.0343 10.2721C15.4171 9.67453 15.7917 9.19536 16.2467 8.83569C16.6953 8.46674 17.32 8.19413 18.1549 8.1308C18.9862 8.06671 19.946 8.1851 21 8.43227Z" fill="#FAFAFA"/>
<path fill-rule="evenodd" clip-rule="evenodd" d="M16 17.0002C16 18.1045 16.896 19.0002 18.0006 19.0002C19.1053 19.0002 20 18.1045 20 17.0002C20 15.896 19.1053 15.0002 18.0006 15.0002C16.896 15.0002 16 15.896 16 17.0002Z" fill="#EC796B"/>
<path d="M104 8.56362V7.10496C104 7.04713 103.956 7.00024 103.902 7.00024H96.0983C96.044 7.00024 96 7.04713 96 7.10496V8.56362H99.1714V18.0002H100.828V8.56362H104Z" fill="white"/>
<path d="M88.1019 7.00024C88.0455 7.00024 88 7.04711 88 7.10496V17.8954C88 17.9532 88.0455 18.0002 88.1019 18.0002H94.8983C94.9545 18.0002 95 17.9532 95 17.8954V16.4523H89.7149V12.9952H94.0815V11.4783H89.7149V8.54813H94.6236V7.10496C94.6236 7.04713 94.5781 7.00024 94.5218 7.00024H88.1019Z" fill="white"/>
<path d="M83.6495 17.9362L83.6838 18.0002H84.9055C84.9578 18.0002 85 17.9532 85 17.8954V7.10496C85 7.04713 84.9578 7.00024 84.9055 7.00024H83.4375V14.6183C83.1826 14.168 82.8866 13.6723 82.5496 13.1313C82.1204 12.4273 81.6587 11.7131 81.1644 10.9887C80.6795 10.2541 80.1852 9.54514 79.6816 8.862C79.1867 8.16801 78.7193 7.56104 78.2792 7.04148L78.2443 7.00024H77.0945C77.0422 7.00024 77 7.04711 77 7.10496V17.8954C77 17.9532 77.0422 18.0002 77.0945 18.0002H78.5625V9.83924C78.7633 10.1023 78.977 10.3938 79.2036 10.7139C79.5099 11.1464 79.8255 11.61 80.1507 12.1047L80.151 12.1053L80.1514 12.1058C80.4761 12.5899 80.8012 13.0947 81.1262 13.6202L81.1266 13.6209L81.1271 13.6216C81.4615 14.1474 81.7819 14.6679 82.0884 15.1832L82.0887 15.1838L82.0892 15.1843C82.3954 15.6889 82.6783 16.1779 82.938 16.6513L82.9384 16.6521L82.939 16.6531C83.2085 17.1274 83.4454 17.5551 83.6495 17.9362Z" fill="white"/>
<path d="M75.555 7.21933L75.5968 7.17551C75.661 7.10829 75.6111 7.00024 75.5159 7.00024H73.4942L73.4532 7.04567C73.1848 7.34318 72.8515 7.69279 72.4524 8.09472C72.0638 8.48674 71.6481 8.89953 71.2055 9.33298C70.7629 9.76628 70.3149 10.1996 69.8616 10.6329C69.499 10.9713 69.1606 11.2831 68.8464 11.5685V7.00024H67.1095C67.049 7.00024 67 7.04711 67 7.10496V17.8954C67 17.9532 67.049 18.0002 67.1095 18.0002H68.8464V13.0099C69.2276 13.2485 69.6174 13.5277 70.0156 13.8478L70.0163 13.8482L70.0168 13.8487C70.4991 14.2277 70.971 14.6428 71.4325 15.0942L71.4335 15.0952L71.4347 15.0963C71.9064 15.537 72.3515 16.0033 72.7698 16.4953L72.7702 16.4958L72.7707 16.4964C73.1889 16.9781 73.5583 17.4592 73.8793 17.9397L73.9196 18.0002H75.8902C75.9745 18.0002 76.0273 17.9131 75.9853 17.8433L75.9618 17.8041C75.666 17.3121 75.2947 16.7958 74.8486 16.2548C74.4138 15.7147 73.9466 15.1852 73.447 14.6661C72.9473 14.147 72.4366 13.6589 71.9148 13.2017C71.4423 12.7877 70.9907 12.4321 70.5602 12.1357C70.9263 11.7942 71.3144 11.4274 71.7246 11.0355C72.1788 10.6013 72.6331 10.1619 73.0874 9.71734C73.5526 9.26243 73.9962 8.82298 74.4182 8.39899L74.4187 8.39841L74.4194 8.39783C74.8411 7.96376 75.2196 7.5709 75.555 7.21933Z" fill="white"/>
<path fill-rule="evenodd" clip-rule="evenodd" d="M58.1015 7.00048C58.0455 7.0005 58 7.04701 58 7.10436V17.8963C58 17.9538 58.0455 18.0002 58.1015 18.0002H59.5526V14.0323H61.6723C61.9107 14.3242 62.1433 14.6297 62.3702 14.9486L62.371 14.9498L62.3719 14.951C62.7429 15.4483 63.0857 15.967 63.4004 16.5074L63.4008 16.5079L63.4011 16.5085C63.6861 16.9866 63.9348 17.4589 64.1474 17.9253L64.1815 18.0002H65.8986C65.9723 18.0002 66.0213 17.9227 65.9908 17.8542C65.7933 17.4119 65.5793 16.9787 65.3416 16.5567C65.0186 15.967 64.6643 15.383 64.2788 14.805C64.0585 14.4747 63.8334 14.1538 63.6037 13.8423C64.2441 13.6421 64.7509 13.2801 65.1174 12.7547L65.1177 12.7543C65.5577 12.1184 65.7757 11.3705 65.7757 10.5164C65.7757 9.92941 65.6759 9.39233 65.4739 8.90704C65.2711 8.41468 64.966 8.00636 64.5595 7.68422C64.1558 7.36037 63.6585 7.1543 63.0728 7.06189C62.9362 7.03615 62.7951 7.02073 62.6496 7.0155C62.5076 7.00551 62.3836 7.00042 62.2782 7.00042C61.833 7.00042 61.3878 7.00037 60.9426 7.00032C59.9956 7.00023 59.0486 7.00016 58.1015 7.00048ZM64.194 10.5164C64.194 10.7999 64.1479 11.0788 64.055 11.3538C63.9644 11.6179 63.8196 11.8494 63.6194 12.0494C63.4297 12.2388 63.1796 12.3732 62.8627 12.4483C62.7622 12.4716 62.6541 12.4882 62.5379 12.4977L62.5378 12.4977L62.5376 12.4977C62.4235 12.5074 62.3225 12.5122 62.2344 12.5122H59.5526V8.52058H62.2344C62.3225 8.52058 62.4235 8.52532 62.5376 8.53505L62.5403 8.53527L62.5431 8.53538C62.656 8.54 62.7606 8.55611 62.8577 8.58313L62.8608 8.58403L62.8641 8.58474C63.1798 8.65491 63.4291 8.78875 63.6183 8.98225L63.6188 8.98279L63.6194 8.9833C63.8192 9.18303 63.9641 9.41685 64.055 9.68607V9.68641L64.0552 9.68674C64.1477 9.95643 64.194 10.2328 64.194 10.5164Z" fill="white"/>
<path fill-rule="evenodd" clip-rule="evenodd" d="M54.6679 16.5479L54.6681 16.5484L54.6682 16.5489C54.8188 16.9941 54.9795 17.4497 55.1502 17.9155L55.1812 18.0002H56.8983C56.9689 18.0002 57.0179 17.928 56.9938 17.8596C56.6187 16.7972 56.2401 15.736 55.8538 14.6779C55.5029 13.7062 55.1569 12.7859 54.8158 11.9172C54.4848 11.0484 54.1537 10.2209 53.8225 9.43447C53.4903 8.63523 53.1406 7.84392 52.7764 7.05965C52.7595 7.02333 52.724 7.00024 52.6849 7.00024H51.3153C51.2762 7.00024 51.2405 7.02333 51.2237 7.05965C50.8594 7.84393 50.5099 8.63528 50.1776 9.43454C49.8465 10.2206 49.5105 11.048 49.1695 11.9165L49.1692 11.9171L49.1691 11.9178C48.8381 12.7862 48.4971 13.7063 48.1463 14.6779C47.7599 15.736 47.3813 16.7972 47.0062 17.8596C46.9821 17.928 47.0311 18.0002 47.1017 18.0002H48.7454L48.7456 18.0001H48.7777L48.8154 17.9584C49.2119 17.5195 49.6551 17.0887 50.1453 16.6662L50.1457 16.6659L50.1462 16.6654C50.6382 16.2324 51.1512 15.8308 51.685 15.4604L51.6863 15.4596L51.6874 15.4587C52.2133 15.0756 52.7426 14.7318 53.2753 14.4273L53.2759 14.4269L53.2765 14.4266C53.4683 14.314 53.6572 14.2092 53.8431 14.112L54.2024 15.1702L54.2027 15.171C54.3628 15.6352 54.5178 16.0942 54.6679 16.5479ZM52.8206 11.3301L52.821 11.331L52.8213 11.3319C52.9659 11.7094 53.1105 12.0932 53.2552 12.4833C53.2444 12.4882 53.2334 12.4934 53.2222 12.4986C52.7132 12.7376 52.1661 13.0466 51.5812 13.4248C51.0212 13.787 50.4655 14.1804 49.9144 14.6051L50.1477 13.918C50.4565 13.0249 50.7652 12.1626 51.074 11.331C51.3578 10.581 51.6534 9.8597 51.9608 9.16694C52.2591 9.85943 52.5457 10.5805 52.8206 11.3301Z" fill="white"/>
<path d="M47 8.56362V7.10496C47 7.04713 46.956 7.00024 46.9016 7.00024H39.0983C39.044 7.00024 39 7.04713 39 7.10496V8.56362H42.1714V17.8954C42.1714 17.9532 42.2154 18.0002 42.2698 18.0002H43.7302C43.7844 18.0002 43.8284 17.9532 43.8284 17.8954V8.56362H47Z" fill="white"/>
<path d="M32.1864 17.6175L32.186 17.6173C31.6061 17.3615 31.1238 16.9962 30.7413 16.5211L30.7409 16.5205L30.7405 16.5201C30.3619 16.039 30.116 15.4719 30.0019 14.8216C29.9962 14.7891 30.0034 14.7556 30.0218 14.7286C30.0403 14.7017 30.0685 14.6836 30.1001 14.6784L31.3755 14.4704C31.4358 14.4605 31.4935 14.4998 31.5087 14.561C31.6637 15.1844 31.9827 15.6682 32.4663 16.0189C32.9573 16.3666 33.5361 16.5422 34.2079 16.5422C34.6437 16.5422 35.0332 16.4725 35.3779 16.3354C35.7266 16.1936 35.9974 15.9948 36.195 15.7413C36.3894 15.4921 36.4876 15.1969 36.4876 14.8499C36.4876 14.6345 36.4506 14.4582 36.3821 14.3165C36.3816 14.3152 36.381 14.3139 36.3804 14.3127C36.3138 14.1617 36.2207 14.0356 36.1008 13.9329C36.0996 13.9319 36.0984 13.9309 36.0974 13.9299C35.977 13.8186 35.8387 13.7246 35.6821 13.648C35.5219 13.5697 35.3548 13.505 35.1808 13.4543L35.1792 13.4538L32.6352 12.6717C32.3519 12.5837 32.0781 12.4738 31.8137 12.3418L31.813 12.3415L31.8121 12.3411C31.5437 12.2021 31.3032 12.0305 31.0912 11.826L31.0906 11.8254L31.0902 11.825C30.8752 11.6127 30.7048 11.3603 30.5788 11.069L30.5785 11.0683C30.4502 10.7672 30.3881 10.4173 30.3881 10.0216C30.3881 9.38724 30.5465 8.83949 30.8686 8.38498L30.8687 8.38478C31.1921 7.93006 31.6282 7.58453 32.1726 7.34721C32.7165 7.11024 33.3265 6.99552 34.0009 7.00039C34.6843 7.00527 35.2991 7.13217 35.843 7.38389C36.391 7.6306 36.8456 7.98681 37.2045 8.45239C37.5689 8.91899 37.8118 9.47577 37.9353 10.1196C37.9415 10.152 37.9349 10.1857 37.9168 10.2129C37.8988 10.2402 37.8709 10.2588 37.8395 10.2645L36.5294 10.5012C36.4983 10.5068 36.4665 10.4994 36.4407 10.4806C36.4149 10.4617 36.3974 10.4331 36.3922 10.4009C36.326 9.99914 36.1791 9.65838 35.9532 9.37509L35.9519 9.37345C35.7285 9.0833 35.4485 8.86101 35.1096 8.70616L35.1085 8.70562C34.7689 8.54588 34.3949 8.46294 33.9849 8.45834H33.9847C33.5917 8.45372 33.2404 8.51845 32.9289 8.65011C32.6166 8.78216 32.3728 8.96437 32.1931 9.19473L32.1924 9.19563C32.016 9.41725 31.9283 9.67176 31.9283 9.96418C31.9283 10.2546 32.0083 10.4785 32.1597 10.6479C32.323 10.8257 32.5238 10.9693 32.764 11.078C33.0186 11.1861 33.2657 11.2753 33.5055 11.3455L33.506 11.3457L35.4045 11.9123C35.6259 11.9757 35.8786 12.0629 36.1624 12.1737C36.4595 12.2878 36.746 12.4486 37.0217 12.6552C37.3055 12.863 37.5386 13.1405 37.7217 13.4846C37.9098 13.8332 38 14.2667 38 14.7782C38 15.2923 37.8997 15.7544 37.6958 16.1614C37.498 16.5658 37.2203 16.9056 36.864 17.1796L36.8632 17.1802C36.5089 17.4479 36.0987 17.6498 35.6343 17.7873C35.1696 17.9295 34.6731 18.0002 34.1456 18.0002C33.425 18.0002 32.7713 17.8735 32.1864 17.6175Z" fill="white"/>
</svg>
